<?xml version="1.0" encoding="utf-8"?>
<!-- Generator: Adobe Illustrator 21.0.0, SVG Export Plug-In . SVG Version: 6.00 Build 0)  -->
<svg version="1.1" xmlns="http://www.w3.org/2000/svg" xmlns:xlink="http://www.w3.org/1999/xlink" x="0px" y="0px"
	 viewBox="0 0 300 44" style="enable-background:new 0 0 300 44;" xml:space="preserve">
<style type="text/css">
	.st0{fill:#0083B4;}
	.st1{font-family:'Philosopher';}
	.st2{font-size:37.1404px;}
	.st3{fill:#8EC73F;}
	.st4{fill:#58595B;}
	.st5{font-family:'Hero';}
	.st6{font-size:10.935px;}
	.st7{letter-spacing:4;}
</style>
<g id="Background">
</g>
<g id="Logo">
</g>
<g id="Text">
	<text transform="matrix(1 0 0 1 77.9864 31.3027)"><tspan x="0" y="0" class="st0 st1 st2">True</tspan><tspan x="74.4" y="0" class="st3 st1 st2">Balance</tspan></text>
	<g>
		<text transform="matrix(1 0 0 1 51.711 41.9443)" class="st4 st5 st6 st7">VETERINARY ACUPUNCTURE</text>
	</g>
	<g>
		<path class="st0" d="M21,24.7c0.2-0.6-0.1-1-0.1-1l-0.1,0.3c-0.5,1.8-3.3,2.9-3.3,2.9S20.4,27.3,21,24.7z"/>
	</g>
	<path class="st0" d="M45.7,21.3c-0.1-1.3-0.4-2.6-0.8-3.9c-0.6-1.7-1.4-3.4-2.4-4.9c-1-1.5-2.3-2.9-3.7-4c-1.4-1.2-3-2.1-4.7-2.8
		c-1.7-0.7-3.4-1.3-5.2-1.6c-0.9-0.2-1.8-0.3-2.7-0.3c-0.9-0.1-1.8-0.1-2.7,0c-1.9,0.1-3.8,0.4-5.6,0.8c-1.6,0.4-3.2,1-4.7,1.7
		c-3.2,1.5-6.2,3.5-8.7,6c0,0-0.4,0.6,0.7-0.2c0.6-0.4,3-2.6,7.3-4.3c3.4-1.4,7.9-2.5,13.6-2.4c0.8,0.1,1.7,0.2,2.5,0.4
		c1.7,0.3,3.3,0.9,4.8,1.6c1.5,0.7,3,1.6,4.2,2.7c1.3,1.1,2.4,2.3,3.4,3.7c0.9,1.4,1.6,2.9,2.2,4.5c0.9,2.7,1,5.8,1,5.8
		c-0.8-3-2.3-5.2-2.4-5.4C40.7,17.6,41,15,41,15L35,11.1c-0.7,0-7.8-0.3-15.5,5.1c0,0-3.4,2.8-3.2,4.5c0.1,0.9-0.2,1.9-0.6,2.4
		c-0.5,0.7-7.6,5.3-9.7,6.7c-0.4,0.3-0.6,0.4-0.6,0.4S4.4,30.8,4.1,32c0,0,0,0,0,0c0,0,1.4,4.7,8.1,8.2c0.6,0.3,1.3,0.7,2,1
		c0.2,0,0.5-0.1,0.8-0.2c1.3-0.3,3.3-1,3.8-1.4C17,35.5,17.1,41,14,40.2c-0.3-0.1-0.8-0.4-1.6-1c-2.1-1.6-5.6-4.8-6.7-7.7
		c0.2-0.1,0.5-0.2,0.7-0.3c4.4-2.2,8.8-5,10.1-6.1c2.2-1.8,1.7-3.9,1.7-3.9c4-8.2,16.6-8.1,16.6-8.1l4.4,2.6c0,0-0.5,2.3,1.2,4.3
		c4.1,6.1,1.3,12.4,1.3,12.4L37,32c-0.6-1.6-1.2-2.3-1.6-2.8c-2.7-3.6-3.8-8.4-3.8-8.4s-1,2,0.9,6.4c-0.5-0.2-2.3-0.8-3.8-2.1
		c-1.5-1.4-5.2-2.5-5.5-2.5c-0.2,0,1.1,3.2,1.5,3.9C25,27,25,28,22.4,29.9c-0.8,0.6-1.5,2.1-1.2,4c-0.1,0.3-1.4,2.3-1.1,3.4
		c0.4,1.4,2.1,2.5,3.3,2.8c1.9,0.5,3.5-0.8,3.7-0.8c0.4,1.1-1,4.2-1.1,4.5c0.3,0,0.6,0,0.9,0c2.8-0.3,5.3-1.1,7.4-2
		c6.8-3.3,11.4-10.3,11.4-18.3C45.8,22.7,45.7,22,45.7,21.3z M27.5,42.8c0.6-1.3,1.1-2.8,0.8-4c-0.5-2.1-2.9,1.1-4.8,0.2
		c-1.9-0.9-2.2-1.8-2-2.6c0.1-0.6,1.2-2.3,1.2-2.3s-0.8-1.9,0.5-3c1.3-1.1,4.2-3.4,3-5.2l-0.8-1.6c0,0,2,0.9,2.6,1.7
		c0.6,0.8,3,2.1,4.5,2.5c1.5,0.4,3.4,2.9,3.9,5.1c0.4,1.7,1.3,2.9,2.2,3.8C36.5,39.5,33.2,41.8,27.5,42.8z M39.3,36.7
		c-1.2-1.3-1.6-2.9-1.6-2.9c0,0,3.6,0.3,3.6,0.3C40.8,35.1,40,36.1,39.3,36.7z"/>
	<path class="st3" d="M16.5,2.5c-2.6-5.9-8,1.3-8,1.3c1.5-1,2.1,0.1,4.5,1c1.8,0.6,2.9-0.8,3.2-1.4c-1.4-0.5-3.2-0.9-3.2-0.9
		c1.4,0,2.5,0.1,3.3,0.3C16.7,2.8,19.7,4,19.9,4c0.2,0,0.4-0.1,0.6-0.1C20.2,3.8,16.5,2.5,16.5,2.5z"/>
	<path class="st3" d="M8.5,6.9C5.3,3.8,3.6,9.8,3.6,9.8c0.7-1,1.4-0.5,3.1-0.6C8.1,9.1,8.4,8,8.5,7.4c-1,0-2.3,0.3-2.3,0.3
		c1.7-0.9,5-0.7,5.1-0.7c0.2-0.1,0.4-0.2,0.6-0.3C11.5,6.7,8.5,6.9,8.5,6.9z"/>
	<path class="st3" d="M12.1,9.8c0,0-5.5,0.7-4.3,5.3C8.5,17.5,8,18.5,8,18.5s1.7,0.1,4-1.8c2-1.6,1.4-4.2,0.8-5.7
		c-1,1.6-2.1,3.7-2.1,3.7c0.2-1.7,0.9-3.3,1.7-4.6c0,0,2.5-3,3.1-3.5c-0.4,0.1-0.7,0.2-1.1,0.3C14,7.2,12.1,9.8,12.1,9.8z"/>
	<path class="st3" d="M22.3,6.7c-5.2-1-2.9,6-2.9,6c0-1.5,1.1-1.3,2.7-2.6c1.3-0.9,0.8-2.3,0.5-2.9c-1,0.7-2.1,1.8-2.1,1.8
		c1.3-1.9,4.3-3.8,4.3-3.8c-0.2,0-0.4,0-0.6,0C23.9,5.5,22.3,6.7,22.3,6.7z"/>
	<path class="st3" d="M4.5,12.1c0.4-0.4,0.7-0.7,1.1-1.1c-0.3,0.3-1.7,1.5-1.7,1.5c-5.2-0.6-2.4,6.2-2.4,6.2c-0.1-1.5,1-1.4,2.5-2.8
		c1.2-1,0.6-2.4,0.3-2.9c-0.9,0.8-1.9,2-1.9,2c0.5-1.1,1.9-2.5,2.1-2.7C4.3,12.3,4.5,12.1,4.5,12.1z"/>
	<g>
		<path class="st0" d="M26,33.2c0.1-0.5-0.1-0.8-0.1-0.8l-0.1,0.2c-0.3,1.4-2.1,2.2-2.1,2.2S25.7,35.3,26,33.2z"/>
	</g>
</g>
</svg>
